<?xml version="1.0" encoding="UTF-8"?>
<svg id="Layer_2" data-name="Layer 2" xmlns="http://www.w3.org/2000/svg" viewBox="0 0 1443.04 447.95">
  <defs>
    <style>
      .cls-1 {
        fill: none;
      }

      .cls-2 {
        fill: #7e5f9e;
      }

      .cls-3 {
        fill: #342f71;
      }

      .cls-4 {
        fill: #f9fafc;
      }

      .cls-5 {
        fill: #ccd4fa;
      }

      .cls-6 {
        fill: #925d98;
      }

      .cls-7 {
        fill: #260360;
      }

      .cls-8 {
        fill: #cfbbe5;
      }

      .cls-9 {
        fill: #52379f;
      }

      .cls-10 {
        fill: #2c225a;
      }

      .cls-11 {
        fill: #e2e7ea;
      }
    </style>
  </defs>
  <g id="Layer_1-2" data-name="Layer 1">
    <g>
      <g>
        <path class="cls-7" d="M590.06,281.31c-.77,3.57-7.61,8.76-11.52,8.61-.83-.03-10.36-6.96-9.42-9.66l.41-110.47c2.33-7.32,8.39-8.69,15.08-6.02l42.98,53.05c1.27.31,2.66-1.67,3.49-2.48,13.85-13.51,24.89-35.05,38.47-48.53,5.92-5.88,15.32-3.58,17.46,4.57l-.7,111.19c-3.48,5.34-9.72,9.36-15.75,5.26-1.01-.68-4.49-4.7-4.49-5.5v-76.5l-31.31,38.68c-4.59,3.56-9.48,2.29-13.74-1.13l-30.95-36.55v75.5Z"/>
        <path class="cls-7" d="M730.06,281.31c-1.76,8.17-18.32,10.73-20.79-.21,1.72-24.53-3.23-54.44.24-78.34,4.29-29.61,36.73-48.06,64.81-37.71,44.99,16.58,27.38,77.07,30.5,114.02-1.37,7.3-7.12,11.61-14.48,8.94-1.47-.53-6.28-4.46-6.28-5.7v-31.5h-54c-1.28,8.69,1.73,22.49,0,30.5ZM784.06,228.81v-23.5c0-1.46-2.88-7.45-3.84-9.16-8.02-14.31-27.73-17.65-40.18-6.85-2.84,2.47-9.99,13.42-9.99,17.01v22.5h54Z"/>
        <path class="cls-9" d="M1170.06,250.81c-1.22,8.9,3.71,32.27-6,36.49-6.3,2.74-12.35.22-14.79-6.2,1.4-24.54-2.61-52.66-.2-76.78,3.26-32.62,40.21-52.3,69.41-37.38.31.16,4.95,3.08,5.48,3.44,32.52,21.99,16.36,77.28,19.9,110.72-2.95,9.17-16.39,9.8-19.79.71v-32.01s-54,1.01-54,1.01ZM1223.06,228.81v-24.5c0-4.18-6.43-13.37-10.06-15.94-16.1-11.36-38.87-3.41-42.7,16.17-.31,1.59-1.24,8.62-1.24,9.76v14.5h54Z"/>
        <path class="cls-7" d="M521.06,265.81c12.89-3.44,14.99-19.23,4.33-25.83-7.5-4.64-29.54-1.15-39.72-2.28-31.5-3.49-45.35-43.91-21.62-65.4,18.2-16.47,56.94-7.37,80.04-9.02,7.28,2.32,9.34,10.93,4.96,17.05-1.58,2.21-3.79,2.94-5.99,3.47-17.17,1.29-36.74-1.7-53.62-.07-1.99.19-2.48.85-3.38,1.07-18.8,4.66-16.32,28.45-.44,30.94,17.22,2.7,35.88-5.05,51.76,6.24,26.87,19.09,16.6,62.27-15.82,65.83-18.97,2.08-42.16-1.19-61.55-.46-10.27-5.07-10.08-17.67,2.04-20.54,17.82-1.33,38.09,1.75,55.62.07,2-.19,2.41-.81,3.38-1.07Z"/>
        <path class="cls-9" d="M1422.06,214.81c.97-.97.91-1,1.05-2.4,1.4-13.81-1.61-29.56.49-43.56,3.81-8.4,15.11-8.35,19.01-.1l.42,111.53c-3.16,6.23-8.48,11-15.51,6.55-.95-.6-4.47-4.79-4.47-5.52v-43l-1.5-1.5h-51.5v44.5c0,.91-3.02,4.17-4.06,4.94-7.43,5.5-15.03,1.46-16.7-7.18,2.01-33.5-3.49-71.87-.29-104.81,1.28-13.16,13.96-15.68,20.54-4.43l.51,44.98h52Z"/>
        <path class="cls-9" d="M1093.06,249.81c-11.18.73-24.89-1.39-35.55-.03-.8.1-1.5.04-1.45,1.03-.77,9.4,1.04,20.3,0,29.5-1.39,12.3-16.58,13.35-20,.5l-1-63c.02-.65-.11-1.43,0-2,.47-.11.93-.54,1-1,.15-.97-.2-2.08.27-3.22,4.31-10.48,19.73-3.53,19.73,1.72v15.5h37.5c1.51,0,11.76-4.85,12.96-6.04,4.18-4.15,6.05-12.71,5.52-18.45-.9-9.78-8.43-19.48-18.5-20.5-15.77-1.59-33.76,1.33-49.78-.22-10.23-3.9-10.53-17.03-.16-20.74,20.29,2.24,51.07-5.31,68.75,5.15,35.56,21.05,22.84,79.06-19.3,81.8Z"/>
        <path class="cls-7" d="M880.56,222.81c6.51-.88,14.97-5.94,18.06-11.94,5.98-11.6-1.47-25.25-14.15-26.97-13.86-1.89-31.54.98-45.95-.05-8.6-.61-16.1-2.89-14.22-13.3,1.09-6.03,3.53-7.31,9.23-7.78,13.01-1.08,44.2-1.46,56.59.49,12.71,2,24.02,12.82,28.44,24.56,8.2,21.8-3.94,48.3-27.49,53,6.42,9.2,15.1,16.7,21.97,25.51,4.59,5.88,10.68,11.91,4.48,19.43-3.57,4.32-11.04,4.23-15.1.69l-37.84-43.66c-.65-2.59-1.48-19.98.98-19.98,4.75-.45,10.41.62,15,0Z"/>
        <path class="cls-7" d="M987.06,183.81v97.5c0,2.6-6.47,7.34-9.51,7.56-3.35.24-11.49-3.29-11.49-6.56v-98.5h-28.5c-.97,0-5.24-3.89-5.92-5.08-3.85-6.79-.56-12.85,6.13-15.71,23.28,1.32,49.96-2.48,72.84-.26,8.9.86,15.03,9.39,8.91,17.01-.57.71-4.64,4.04-4.96,4.04h-27.5Z"/>
        <path class="cls-9" d="M1303.06,183.81c-.78.08-2.08-.41-2.01.51l1.01,95.49c-1.89,7.02-4.48,6.94-10.53,9.99-2.37-3.65-7.97-2.94-9.26-8.7l.55-95.83-1.26-1.46h-27c-1.57,0-4.84-2.63-5.94-4.06-6.39-8.31-.4-16.09,8.89-16.99,16.83-1.63,51.08-1.42,68.08.02,8.29.7,12.5,3.51,11.49,12.55-.3,2.66-2.61,6.94-5.05,7.96-4.88,2.05-22.15-.14-28.98.52Z"/>
        <path class="cls-7" d="M843.06,211.81v68c-2.9,11.4-15.21,11.74-19.79,1.29,1.12-21.78-2.2-46.38-.26-67.84,1.05-11.61,16.57-13.37,20.05-1.45Z"/>
        <path class="cls-6" d="M1035.06,215.81c.09-.47.53-.86,1-1-.07.46-.53.89-1,1Z"/>
      </g>
      <g>
        <path class="cls-5" d="M387.54,106.23c.28-.2,1.45-4.37,4.02-5.47,9.82-4.2,11.99,11.02,3.98,13.47h-2c-.6-.15-1.69.2-2,0-1.68-1.08-4.88-5.67-4-8Z"/>
        <path class="cls-5" d="M223.54,439.23c-4.59,2.67-11.38,0-11.99-5.59-1.16-10.62,18.04-11.92,14.99,1.59-.32.63-2.74,3.85-3,4Z"/>
        <path class="cls-5" d="M153.54,414.23c-9.28,3.37-15.1-3.3-8-11,7.72-1.51,9.87,4.69,8,11Z"/>
        <path class="cls-5" d="M286,401.97c18.4-.48,21.62,14.22,2.82,17-1.45-1.81-4.74-1.85-5.6-5.92-1.43-6.76,2.26-8.2,2.78-11.08Z"/>
        <path class="cls-5" d="M38.54,325.23c-4.54.99-8.56-4.17-8-8.42.05-.38,1.81-4.42,2-4.58.56-.48,4.37-1.1,5.41-1,8.6.87,6.39,12.73.59,14Z"/>
        <path class="cls-5" d="M19.54,245.23c.17,2.38,1.71,4.34.82,7.29-.13.42-3.54,4.59-3.82,4.71-.35.15-2.34.07-3,0-4.71-.51-5.17-4.53-7-5,1.65-8.27,5.26-9.18,13-7Z"/>
        <path class="cls-5" d="M114.54,98.23c.31.13,1.92.92,2,1,.2.22,2.93,4.72,3,5,1.15,4.48-7.46,13.1-12.42,13.04-1.89-3.21-8.1-6.21-8.58-10.04-1-7.99,8.9-12.01,16-9Z"/>
        <path class="cls-5" d="M44.24,98.41c9.54-2.35,17.69,11.76,6.35,15.38-10.71,3.42-14.91-9.71-6.35-15.38Z"/>
        <path class="cls-5" d="M24.22,174.92c-2.9,3.9-9.26,3.01-10.47-2.41-2.92-13.07,16.73-6.02,10.47,2.41Z"/>
        <path class="cls-5" d="M115.54,51.23c-7.29,6.03-17.28-5.6-8.98-11.47,7.75-5.48,15.4,6.16,8.98,11.47Z"/>
        <path class="cls-5" d="M169.54,32.23c-.2-.09-.78-1.52-2-2-.1-7.01,9.59-6.39,9.04-.55-.93,3.94-3.79,3.98-7.04,2.55Z"/>
        <path class="cls-5" d="M360.54,333.23c-4.79.49-7.04-.02-8.89-4.6-2.72-6.71.67-6.59.89-11.4,6.7-2.47,15.17,2.5,12.79,10.3-.64,2.09-4.3,3.68-4.79,5.7Z"/>
        <polygon class="cls-5" points="65.25 357.47 73.51 356.66 74.1 363.55 67.5 364.09 65.25 357.47"/>
        <path class="cls-5" d="M421.15,266.19c.24,1.71,1.34,2.75.98,5.4-.82,6.23-8.85,9.53-13.98,6.6-4.82-2.76-3.08-14.1,2-17,1.02.33,2.91-.22,4.93.54s4.03,3.39,6.07,4.46Z"/>
        <path class="cls-5" d="M415.85,307.77c-.47-.5-1.56-.32-1.95-.56-.46-.29,3.13.22,1.1-.07-4.02-.58-13.21-.28-11.03,4.25.55,1.14.54,4.4,1.06,4.98.3.33,1.1,2.17,2.89,2.75,6.26,2.02,13.36-5.54,7.93-11.35Z"/>
        <path class="cls-5" d="M424.54,180.23c-1.83,2.93-8,4.93-11.29,4.01-1.65-.46-2.97-6.84-5.71-6.01v-3c0-.87-.19-2.39,0-3,.28-.88,4.58-5.45,5.71-5.79,8.17-2.46,15.66,6.8,11.29,13.79Z"/>
        <path class="cls-5" d="M353.54,104.23c1.29.75,3.9,6.14,3.61,8.04-1.29,8.22-11.82,8.59-13.45.22-.33-1.68,1.92-7.41,2.85-8.26s6.03-.56,7,0Z"/>
        <path class="cls-5" d="M84.54,179.23c2.51.37,4.03,1.62,6,3-.45,5.77-.3,12.29-9,10-5.05-1.33-5.4-11.57-1-13,.56-.18,3.21-.11,4,0Z"/>
        <path class="cls-5" d="M162.54,66.23c.22.08,2.66,3.26,2.8,3.71,3.51,11.43-16.49,10.39-11.8-1.71,2.34-.42,5.35-3.3,9-2Z"/>
        <path class="cls-5" d="M351.54,200.23c10.56.58,8.75,18.34-2,16-9.29-2.02-9.17-16.61,2-16Z"/>
        <path class="cls-5" d="M333.54,270.23c4.32.71,5.76,6.43,4.76,10.26-.43,1.63-2.66,3.33-2.76,3.74-4.07.8-5.99-1.21-9-3-.69-2.52.68-10.06,3-11,.4-.16,3.31-.11,4,0Z"/>
        <path class="cls-5" d="M78.78,321.48c5.81-5.83,12.09,6.44,4.21,7.75-6.16,1.03-7.22-4.73-4.21-7.75Z"/>
        <path class="cls-5" d="M112.54,260.23c.6.73,1.63,2.18,2,3v5c-1.13,2.98-3.3,7.31-6,9-11.79,7.35-22.06-12.06-15.29-19.06,6.15-6.35,14.1-4.19,19.29,2.06Z"/>
        <path class="cls-5" d="M154.54,288.23c.27,3.03.19,5.73-2,8-.86-.29-2.32.24-3.93-.53-5.62-2.66-2.29-9.5,1.93-9.47.65,0,2.89,1.63,4,2Z"/>
        <path class="cls-5" d="M377.1,359.23c.15,1.06.83,1.7.61,3.34-.51,3.85-5.47,5.89-8.64,4.08-2.98-1.7-1.9-8.71,1.24-10.5.63.21,1.8-.13,3.04.34s2.49,2.1,3.75,2.75Z"/>
        <path class="cls-5" d="M142,157.97c.27,3.03.19,5.73-2,8-.86-.29-2.32.24-3.93-.53-5.62-2.66-2.29-9.5,1.93-9.47.65,0,2.89,1.63,4,2Z"/>
        <path class="cls-5" d="M374.21,161.39c-2.07-.82-3.94-1.97-4.51-4.29l5.57-4.24c.54,1.04,3.73,2.32,3.39,5.07-.57,2.18-3.14,2.4-4.46,3.47Z"/>
        <path class="cls-2" d="M410.24,320.63c2.93-.19,5.23.03,7.12-2.31,2.7-4.59,8.47-10.32,2.54-13.7-4.66-3.15-2.87-9.29-3.06-14.11.03-1.11.35-2.02,1.17-2.65,9.99-4.37,17.87-12.37,14.08-22.81-.76-1.37-5.69-5.42-6.74-6.88-2.24-2.29-6.57-2.72-6.39-6.59-1.35-13.66-1.44-29.86-1.71-43.67-.11-1.74.64-3.07.96-4.79,1.06-16.95,5.58-7.47,13.15-20,6.69-12.39-.46-23.17-15.29-24.42l-.11-.09c-.8-.79-.54-2.21-1.13-3.18-.95-1.55-1.78-2.45-1.98-4.21-1.53-11.38-9.14-22.53-9.13-33.99,4.33-7.2,8.52-11.65,1.8-19.96-11.47-11.79-17.82-.57-21.99-3.82-14.83-11.55-36.59-26.2-53.38-33.44-3.19-2.77-3.28-8.71-6.7-12.47-13.73-10.5-27.68,7.27-18.81,19.67,2.48,4.05,8.55,5.15,14.2,4.44,1.13.1,1.94.66,2.54,1.57,5.61,9.24,13.06,17.07,17.85,26.24,2.18,5.04-4.79,9.84-.68,17.85,1.12,2.11,2.75,3.93,4.1,5.89,1.6,1.52,5.45,1.88,5.47,4.74-.04,8.11.27,16.59-.13,24.61-2.04,4.18-2.31,8.45-.13,13.52,1.2,7.22.32,4.48,1.09,8.07-.33,4.96-1.21,10.02-.99,15-.35,2.49-2.56,4.26-4.58,5.56-11.47,7.19-10.08,21.65,1.83,27.41.77.99-.25,2.38-.26,3.75-1.98,9.3-3.46,29.29-7.46,36.07-10.06-1.46-19.43,6.1-19.21,16.32.07,1.54.15,3.26.98,4.6.47.91,1.79,1.54,2.08,2.64,3.76,10.55,16.42.72,20.17,7.23,2.38,4.63,6.42,12.78,8.09,18.35.17,1.97-2.5,1.66-3.5,2.85-3.41,5.62-2.44,14.73.12,20.5,3.12,5.22,11.22,6.13,16.82,5.31,3.94-.42,7.68-3.95,8.43-7.84.81-4.37,2.82-7.99,1.49-13.16-.16-.88-.32-1.97.07-2.73.46-1.08,1.85-1.42,2.48-2.23.78-1.13,3.11-2.32,4.05-3.35,1.73-1.87,5.14-2.25,6.98-4.01,2.12-1.71,4.98-2.56,6.22-5.17,3.35-4.81,8.24-16.01,14.36-16.47,1.31.01,1.43,1.88,1.9,3.15.94,3.26,1.89,7.75,1.85,11.55.21,4.06-10.49,3.64-10.86,8.73,1.35,21.7-8.39,22.99-23.92,47.11-2.33,4.9,15.21-14.43,9.92-11.79-2.92,2.42-4.77,6.07-7.69,7.8-3.95,1.63-9.32,1.41-12.29,4.97-4.34,4.34.06,7.91-1.37,11.21-3.28,2.17-5.69,6.63-8.95,8.59-11.78,6.74-23.25,16.07-32.25,19.74-6.15,1.14-12.05,4.42-18.3,5.03-3.77-1.4-6.46-5.04-11.07-5.29-4.05-.4-9.09-1.15-11.44,2.7-1.35,1.95-2.92,4.22-3.49,6.3-.88,2.82-1.31,6.21-4.02,7.42-1.9.91-4.48.42-6.51.56-10.43,5.19-23.01,6.03-33.55,11.46-12.08,3.27,20.04-33.89,21.26-38.19,1.47-2.47-5.86-1.66-6.76-1.17-7.88,8.71-13.12,19.24-19.86,28.75-5.93,7.93-7.04,3.92-7-4.16,0-6.78.81-14.92.38-21.91-.2-2.42-2.76-2.32-4.86-2.72-4.82-1.25-2.7,1.46-2.96,5.95.26,8.08.7,21.53.77,24.08-.06,1.5-.99,3.39-2.76,3.41-1.17-.11-1.89-1.13-2.42-2.12-5.44-10.06-12.88-18.93-18.71-28.78-2.07-2.65-6.38-2.14-9.32-2.93-.51.09-1.66-.22-1.42.55,3.07,4.21,9.66,13.53,13.77,19.23,6.16,8.75,12.03,17.56,12.04,19.67-1.78,1.43-5.77-.58-7.98-1.21-11.1-4.63-22.66-9.61-34.08-12.9-2.83-.57-2.84-3.62-3.96-5.76-1.19-2.49-3.49-3.45-3.88-5.71.35-3.24,4.88-7.07,7.04-10.62.91-1.23,1.52-1.88,1-2.17-1.17-.45-3.1-.94-4.41-.62-1.12.4-1.24,2.28-2.08,3.63-1.73,2.28-3.23,5.12-5.22,7.15-2.33.62-5-.95-7.56-.39-5.28.45-6,4.21-9.6,5.25-3.77.65-4.99-.51-9.07-2.3-12.26-5.56-39.27-17.59-42.96-19.32-3.1-1.93-3.81-6.77-6.19-9.42-.56-.66-1.24-1.41-.64-2.26,8.75-10.13-1.44-14.56,0-18.92,1.58-2.53,3.48-5.27,3.5-8.43.07-.97.26-1.95,1.26-2.31,2.51-.56,4.97-1.19,6.84-2.92,5.09-3.42,5.97-9.94,4.04-15.36-.73-1.95-2.37-4.38-1.73-6.68,1.84-7.87,6.23-15.82,8.72-23.63.39-2.15,2.84-3.48,4.5-1.76,6.85,16.55,13.86,33.73,19.68,50.55,1.14.87,3.75.37,5.44.58,1.32.08,3.05.02,2.44-1.86-5.8-16.42-12.8-32.26-19.49-48.39-1.74-3.59,2.34-8.09,5.97-7.96,3.92.28,8.47,4.55,13.04,6.11,1.44.72,1.93,2.14,3.46,3.27,1.24,1.04,2.95,1.57,3.98,2.85,1.45,2.58,1.55,6.34,4.78,7.63,4.3,1.99,12.78,2.01,15.85-2.68,5.94-10.01-1.24-20.91-12.88-16.39-5.87,1.51-4.05,5.43-10.99,1.97-3.75-1.36-7.19-4.24-10.02-6.52-1.91-.62-4.44-1.38-4-3.99,0-6.23.63-12.78-1.94-18.48-2.5-2.45-7.09-4.64-10.14-5.75-2.59-.9-6.63-.57-7.31-3.97-3.38-14.73-7.65-29.33-11.31-43.44.31-3.17,4.05-3.78,5.58-6.17,1.76-2.28,1.89-5.65,2.45-8.46,3.25-4.26,10.74-5.24,15.02-7.83,6.2-1.65,10.98-8.55,17.59-8.06,2.7.97,5.62.83,8.72.29,10.77-.56,10.28-20.35-.11-20.55-1.46-.21-3.34.34-4.36-.9-1.49-2.89-2.73-6.01-4.5-8.79-3.78-6.4-5.5-14.26-10.47-19.91-.56-.64-1.04-1.4-.78-2.23,4.62-5.75,7.65-7.21,7.85-15.61,1.08-3.66,7.35-6,10.48-9.06,1.84-1.71,2.98-3.32,5.49-4.25,2.41-1.47,3.61-4.6,6.41-5.42,3.89-1.17,7.72,2.22,11.63,1.01,11.65-2.49,14.09-13.93,6.17-22.3-.68-.83-1.55-1.61-1.22-2.72.8-3.08,3.33-12.96,4.58-17.63.18-.88,1.33-.89,2.22-1.08,5.9-.96,11.5-5.07,10.48-11.71.76-9.4-9.17-14.82-17.17-11.03-4.28,1.67-4.94,7.19-7.95,10.09-4.69.94-27.42,6.44-36.86,7.58-5.03-5.69-13.48-7.08-19.65-2.22-2.02,2.55-4.62,5.67-6.53,8.52-1.9,3.65,4.02,9.46-.35,12.27-14.55,9.65-24.68,25.8-38.47,36.11-2.83,2.37-4.63.1-8.58-.21-5.52-.73-11.62,2.4-14.46,7.26-8.64,16.71,5.71,18.62,2.88,26.73-1.71,3.91-4.84,5.95-5.83,10.53-2.66,7.11-6.92,19.33-8.38,21.66-1.51,1.34-3.82.51-6.03.87-3.67.22-6.94,3.52-9.18,5.74-1.32,3.45-1.19,7.67-.41,11.36.76,3.12,2.36,5.87,5.07,7.54.79.51,1.71,1.13,1.88,2.11-2.97,16.41-2.68,33.69-2.54,50.52-1.01,6.13-11.51.99-12.02,18.88-.14,2.37,2.06,3.04,2.92,5.05,2.67,5.66,7.56,5.04,12.3,6.13,1.41,4.01,12.44,36.52,13.58,40.23-.91,3.67-3.88,7.07-4.79,10.66-1.55,7.11,4.11,15.68,11.44,16.52,3.09.84,6.2-1.43,8.56,1.17,5.49,5.62,12.62,12.4,17.28,19.65,3.08,7.6-1.94,15.7,9.73,17.22,1,.33,1.27,1.33,1.31,2.29.08,3.44-.04,8.4,3.45,9.96,5.38,1.94,45.65,19.48,59.68,24.96,3.63,1.08-1.67,8.06,4.52,12.07,6.17,4.52,10.18,5.09,16.52.2,1.11-1.68,3.04-3.52,5.14-3.7,10.42,3.3,21.05,9.17,31.95,10.91,17.2,5.62,8.79,8.17,15.24,16.85,6.89,7.65,18.79,4.39,24.1-3.59,2.62-2.89.86-9.12,5.24-10.27,9.88-3.37,33.93-11.86,38.33-13.34,5.04-1.92,5.69,4.13,9.94,5.07,2.68.51,5.11,1.47,7.81,1.41,6.68-.73,11.98-8.11,12.02-14.45-.14-1.64.95-2.63,2.45-2.91,5.08-1.36,10.78-2.62,15.41-4.79,6.5-4.68,36.84-17.44,43.53-30.51,3.24.73,8.78,1.08,11.14-2.09.82-1.03.84-2.44,1.41-3.59.75-1.45,2.03-2.21,1.98-4.08.2-1.94.23-4.11,1.3-5.86,6.46-5.01,12.67-11.82,16.48-18.87M338.06,280.65c-.35,1.1-1.54,2.38-2.2,3.08-.42.47-1,.67-1.64.71-2.91.23-4.76-1.15-7-2.6-.53-.35-.95-.84-1-1.48-.24-2.76.81-8.11,2.59-9.69,5.95-2.89,11.17,3.86,9.32,9.78l-.06.19ZM150.33,286.3c.46,0,.9.29,1.58.65.79.53,1.75.8,2.31,1.47.69,2.24.18,6.39-1.99,7.76-7.53,1.57-9.22-9.04-2.06-9.87h.16ZM176.39,29.86c-1.01,4.41-5.42,3.99-8.43,1.06-.39-.38-.62-.83-.57-1.42.61-6.25,9.61-5.22,9.04.16l-.03.2ZM82.68,329.31c-7.42,1.24-7.2-8.06-1.34-9.3,5.24-.56,7.57,8.47,1.57,9.26l-.23.04ZM112.44,260.33c4.88,5.62.14,15.31-5.96,17.91-10.35,4.12-18.82-11.42-14.36-18.76,5.2-7.55,14.89-5.96,20.19.7l.13.15ZM95.22,246.9c-.34.75-1.06,1.08-1.89,1.62-.79.4-1.56,1.22-2.07.57-3.38-6.26-12.46-17.77-17.02-20.31-2-.98-1.88-3.95-3.17-5.53-2.33-3.18-12.44-8.42-10.01-13.78.89-1.54,2.55-2.8,4.29-4.24,3.13-2.33,6.14-4.95,8.6-7.51,2.72-1.65,4.03,2.55,6.71,2.49,1.96.31,2.5,1.31,2.65,3.28,4.45,14.29,9.87,28.45,11.95,43.27l-.05.14ZM26.19,242.66c7.28-5.53,23-22.58,26.55-26,.28-.28.53-.37.98-.27,2.33.64,4.31,3.34,5.71,5.34,2.52,3.91,7.37,6.41,10.34,10.07,4.45,7.18,11.38,12.98,16.55,19.79,1.48,1.63.55,3.3-.41,4.95-1.72,3.46-2.27,2.94-5.51,2.48-9.14-.99-17.84-4.21-27.07-5.9-6.91-2.01-27.88,1.53-27.16-10.37l.02-.09ZM34.88,185.98c-1.63-2.73-6.36-9.6-.9-8.84,5.53.64,13.13,2.54,19.5,4.09,7.35,1.85,14.37,3.87,16.24,4.97.35.22.5.43.71.88.5,1.08,1.17,4.05.91,5.38-.11.64-.49,1.11-.97,1.52-3.64,2.95-10.88,8.2-14.02,12.15-4.97,1.13-16.62-15.05-21.39-20.04l-.07-.1ZM81.26,192.23c-7.01-3.24-4.91-16.68,5.04-12.43,1.39.65,2.74,1.25,3.72,2.32.39.67.3.95.3,1.61-.24,6.11-1.85,10.61-8.9,8.56l-.16-.06ZM136.89,156.16c1.07.24,2.36,1.23,3.42,1.74.2.12.4.29.54.48.63,2.45.23,5.35-1.37,7.26-.39.33-.95.45-1.48.43-6.14-.11-6.69-8.71-1.25-9.91h.14ZM124.94,137.16c1.73,4.15,4.94,7.55,6.95,11.54.23.47.45,1.05.38,1.53-.37,1.54-2.51,1.91-3.18,3.33-1.28,1.92-.84,3.97-1.21,6.4-.16,1.09-.54,2.18-.6,3.26-.12,1.26.6,2.65-.04,3.55-.27.38-.61.62-1.07.86-9.01,4.19-18.48,7.8-27.07,12.76-.95.55-1.66.3-2.28-.45-.81-.88-1.83-1.15-2.86-2.26-.8-.85-1.64-1.8-2.43-2.65-.85-.87-1.37-1.68-.9-2.87,2.88-8.3,3.54-17.93,6.9-25.94,2.1-5.38,4.97-11.54,6.68-17.44.44-1.43.9-2.7,1.88-3.6,1.96-1.73,4.96-.52,7.89-1.81.67-.28,1.44-.74,2.15-.54.43.13.79.57,1.05.98,2.69,4.3,5.43,8.65,7.67,13.19l.08.17ZM106.99,117.11c-2.45-2.64-7.21-5.77-8.41-9-2.27-8.67,9.54-13.4,16.68-9.47.85.41,1.33.82,1.85,1.68.67,1.17,1.81,2.77,2.26,4.05,1.04,4.51-7.47,13.29-12.25,12.81l-.12-.06ZM153.5,68.45c.17-.19.37-.34.59-.45,3.58-1.42,7.31-3.8,10.14.32,1.38,1.84,1.83,4.75.78,6.76-3.1,5.98-15.6,2.26-11.62-6.47l.12-.15ZM126.38,42.77c.14-.21.24-.32.43-.4.76-.22,3.61-.97,7.37-1.98,5.98-1.61,23.35-6.24,26.31-7.03.3-.04.43.04.78.25,1.06.84,3.52,2.64,3.77,4.34.29,4.87-5.53,15.02-5.82,20.98-.41.73-1.26.56-2.08.72-.49.05-1.68.32-1.99.49-1.97.79-3.32,2.44-5.45,2.92-.83.21-1.7-.02-2.27-.66-2.01-2.09-5.62-3.84-9.36-5.58-5.76-2.87-15.89-6.37-11.74-13.96l.06-.09ZM121.42,55.46c.51-.21.91-.23,1.36,0,3.38,1.85,9.08,4.95,13.19,7.2,3.81,2.09,7.16,3.89,8.09,4.43.28.2.4.42.65.74,1.31,1.37,2.01,2.47,1.73,4.59-.43,2.39.68,5.31-1.37,7.03-2.1,1.73-4.76,3.4-6.04,5.56-.57.92-1.31,1.68-2.25,2.26-5.48,3.37-10.04,8.63-15.49,7.42-2.76-.62-5.61-2.99-7.03-5.31-2.13-3.93-.26-9.05-1.14-13.26-.56-4.34-1.67-9.28-1.76-13.41.26-4.24,5.46-4.42,8.45-6.41.45-.28,1.01-.58,1.46-.77l.14-.06ZM106.48,39.75c6.9-5.17,15.14,5.34,9.36,11.11-7.2,7.05-17.86-5.15-9.54-10.98l.18-.13ZM101.98,57.25c5.47.96,4.47,5.75,4.32,10.07-.43,7.25-1.42,14.66-1.03,22.01.14,1.28-.62,2.07-1.86,2.2-5.77.85-10.13,5.8-12.77,10.63-.53.65-1.3.97-2.13,1.09-7.35.96-15.47-.47-22.99.74-1.04.22-2.23.36-2.48-.9-.42-1.47-1.17-4.38-1.42-5.32-.09-.51-.2-.59-.02-.84,1.12-1.13,10.2-10.21,19.39-19.41,5.79-5.82,16.24-16.25,20.22-20.23.19-.14.31-.09.65-.05l.12.02ZM62.92,110.12c3.09-2.12,8.24-.41,11.98.03,2.82.17,7.76.11,12.22.18,1.48.17,2.76-.47,3.33.73,1.35,4.96,4.81,9.08,9.48,11.43,2.92,1.21.36,3.63-.64,5.65-6.66,10.77-12.27,29.48-15.43,41.49-2.08,8.06-9.25-10.06-10.32-12.62-2.98-7.28-5.65-15.09-6.95-17.92-.78-1.19-1.8-2.48-2.15-3.97-.76-2.63-3.01-4.65-3.43-7.46-.44-1.95-2.17-4.1-3.13-5.96-.56-1.13-.79-1.78-.41-2.71,1.11-2.09,3.68-6.93,5.35-8.8l.1-.08ZM44.19,98.54c7.07-2.42,15.81,7.69,9.67,13.43-3.1,2.69-9.15,3.61-12.22.22-3.75-3.91-2.34-10.92,2.36-13.57l.19-.08ZM44.58,122.61c2.14-1.03,6.14-.65,7.22,2.27,7.63,15.7,13.91,32.07,22.89,46.93.86,1.38.75,3.2.03,4.62-3.04,5.77-10.19.58-14.7-.42-8.98-2.63-19.44-2.92-27.7-6.84-.43-.4-.63-1.06-1.03-2.1-.88-2.62-2.41-5.7-2.86-7.92,2.14-3.83,4.56-9.02,7.12-16.26,1.59-4.28,3.18-8.69,4.61-12.3,1.79-4.05,2.39-6.55,4.31-7.94l.11-.05ZM28.83,189.16c2.52,3.6,26.48,23.5,18.75,26.2-9.44,5.45-16.52,14.37-23.8,22.42-.63.73-1.51,1.43-2.47,1.44-1.32.02-2.77-1.29-3.44-1.63-.23-.15-.34-.24-.38-.35.14-2.61,3.16-40.12,3.99-50.83.15-1.6.17-2.66.27-3.02.28-.23.71-.15,1.13-.15,3.07.18,4.01,3.92,5.85,5.8l.1.12ZM13.55,172.57c-3.05-11.78,14.9-7.47,11.13,1.4-2.35,5.02-9.88,4.27-11.08-1.23l-.04-.17ZM20.29,252.48c-.59,1.14-2.88,4.04-3.98,4.77-1.79.36-4.13.04-5.73-.87-1.6-.83-2.68-2.85-3.78-3.77-.42-.43-.39-1.01-.26-1.61,1.65-6.61,5.11-7.68,11.66-6.03,1.19.26,1.49,1.27,1.7,2.31.48,1.6.94,3.34.45,5.06l-.05.15ZM38.25,325.25c-6.84,1.12-10.09-8.17-5.87-12.75,10.32-5.98,15.73,9.12,6.07,12.7l-.2.05ZM41.03,302.63c-1.15-.26-2.98-.29-4.12.11-1.54.85-2.41.57-2.85-1.24-1.34-6.87-4.22-13.52-6.91-20.14-2.35-6.22-5.1-11.75-5.43-17.6.93-9.81,12.87-5.54,19.19-4.55,12.12,1.62,24.3,3.38,36.47,4.73,1.52.14,3.11.73,4.27,1.7,2.22,1.77,2.32,3.34,2.75,6.78.07,2.1,1.68,4.53,0,6.3-6.9,6.85-18.2,11.04-26.25,16.85-4.16,2.64-7.9,5.97-11.71,9.07-1.46.93-3.26-.05-4.19-1.16-.37-.36-.69-.65-1.09-.8l-.13-.05ZM68.34,362.77c-.52-1.41-1.43-3.86-1.87-5.36.12-.11,6.63-.67,6.91-.68.21.39.15,1.4.26,2.1.04.83.34,3.03.26,3.5-1.25.2-4.17.37-5.53.46l-.04-.02ZM69.02,349.34c-1.43.32-4.41-.49-4.92-2.04-.49-1.77-1.47-3.75-2.67-5.2-3.34-4.26-8.4-9.09-12.22-13.26-.83-.82-.94-1.86-.31-2.83,2.03-3.56,2.38-10.14.87-14.05-.52-1.08-.21-1.95.85-2.52,2.7-1.86,5.03-4.19,7.87-5.81,1.58-1.33,2.9-3.02,4.82-3.85.86-.41,1.77-.77,2.52-1.35,6.19-5.88,15.51-12.42,23.31-16.64,1.06-.61,1.83-.37,2.53.44.82.96,2.13,2,2.65,3.21.44,1.08-.18,2.13-.46,3.25-.28,1.56-1.41,2.47-2.28,3.89-1.02,1.75-1.58,3.78-2.21,5.7-1.34,4.17-3.82,8.14-4.67,12.5-.36,1.27-1.67,1.67-2.91,1.88-11.12,1.87-14.75,11.75-7.17,20.53,1.41,4.77-2.47,11.02-4.44,14.99-.25.46-.57.9-1.02,1.11l-.13.05ZM153.11,414.23c-8.6,3.76-14.94-3.68-7.87-10.61.35-.24.74-.39,1.14-.47,6.72-.97,9.07,5.48,6.87,10.95l-.14.13ZM226.3,435.39c-2.68,7.49-14.58,5.85-14.96-2.14-.1-11.05,18.24-10.36,15.03,1.94l-.06.2ZM290.17,416.13c-4.94-2.56-4.75-7.36-2.32-11.87.37-.74,1.09-1.03,1.94-1.02,12.62.49,12.53,11.89.56,12.95l-.19-.06ZM387.37,106.23c4.68-13.93,20.11-.93,9.4,7.22-1.26.96-2.75.87-4.19.88-.54,0-1.12-.02-1.58-.34-1.68-1.23-4.38-5.43-3.67-7.62l.04-.14ZM391.66,121.56c.45-.42,1.19-.26,1.88.02,1.14.43,1.96,1.02,2.38,2.16,3.72,10.72,8.96,25.69,12.26,35.86.6,1.67-.63,3.13-1.59,4.52-5.24,7.54-9.63,2.41-17.71-2.25-1.14-.62-2.28-.98-3.46-1.37-3.01-1-4.29-3.89-6.22-7.35-.57-1-1-2.11-.57-3.21.88-2.37,2.59-6.74,3.61-9.37,1.97-6.24,6.91-11.25,8.64-17.42.14-.54.3-1.14.67-1.51l.1-.09ZM355.44,124.5c1.52-.7,3.18-.13,4.33,1.02,1.18,1.08,2.41,1.81,3.42,2.75,1.42,1.37,2.4,3.61,4.1,4.91,5.34,4.44,7.41,5.71,7.06,12.55.03,4.14-2.02,3.53-4.68,5.56-4.91,3.47-3.01,12.26,3.02,12.94,2.25.16,5.06-.33,7.38.54,6.9,2.38,17.43,5.48,20.83,11.99,1.41,2.77-1.87,5.63-4.44,6.49-10.27,3.73-22.1,7.75-30.4,14.81-.6.49-1.37,1.31-2.06,1.16-2.07-.97-5.23-3.4-7.36-4.71-1.29-.95-2.24-1.11-2.48-2.56-.41-4.92.61-10.7.26-15.52-.04-.61,0-1.25.22-1.8l.57-14.42c.8-1.59,11.5,2.59,13.17,1.51,6.01-4.52,3.61-5.08-1.66-7.74-.65-.43-12.28-1.55-12.48-2.28-.05-2.86-.01-18.45-.02-25.16-.1-1.26.09-1.67,1.21-2.04M374.75,132.16c-.55-.11-.99-.49-1.35-.92-4.44-5.31-14.76-15.5-7.16-18.42,2.82-1.09,4.73-.65,8.22-.79,2.81.07,4.81-.18,6.87.23,1.18.88,2,3.7,2.77,5.19.09.26.19.58.15.84l-.02.13c-2.5,4.04-3.64,13.78-9.48,13.74M339.22,89.2c-4.61-6.77-11.16-13.24-12.7-21.18-.18-.91-.17-1.9,1.01-1.12,3.88,2.67,8.59,3.65,12.36,6.09,3.92,2.51,8.54,3.68,12.15,6.65,5.52,3.98,12.4,9.52,17.13,13.38,3.4,2.83,7.8,5.85,10.44,9.35.98,1.41,1.71,3.11.15,3.29-2.3.18-11.24.77-13.55.93-1.35.22-2.57-.81-3.57-1.67-1.33-1.24-2.59-1.93-3.76-3.12-2.91-4.31-6.71-5.13-11.61-3.88-.56.12-1.25.22-1.72-.12-.39-.27-.62-.75-.83-1.2-1.16-2.73-3.9-5.11-5.4-7.25l-.11-.15ZM343.52,112.62c-.16-1.18.2-2.26.56-3.48.91-2.27,1.24-4.29,2.82-5.09,1.24-.4,3.21-.34,4.61-.19,3.05.06,3.86,3.22,4.92,5.54.57,1.57.76,2.66.3,4.09-2.16,7.42-11.91,6.41-13.17-.7l-.03-.18ZM351.44,200.29c8.1.23,9.36,12.54,2.58,15.64-12.38,4.1-16.33-16.16-2.81-15.66h.22ZM342.57,267.02c4.81-11.5,7.85-28.7,8.86-41.55,1.15-2.92,6.36-3.25,8.73-3.07.57.16,1.23.77,1.73,1.28,4.67,4.72,12.66,11.24,16.71,16.79,5.78,6.76,12.69,12.68,18.47,19.47.54.63.88,1.17.88,1.83-.13,1.46-.91,3.32-1.28,4.92-.26,1.12-.95,1.61-2.15,1.29-4.27-.83-9.41-1.04-13.4-1.83-.84-.15-1.59-.24-2.47-.16-1.49.12-7.28-1.31-8.74-1.37-.91.01-1.32-.23-2.06-.06-2.82.82-16.97,5-22.87,6.73-.33.11-.62.09-.86-.18-.56-.7-1.7-2.66-1.55-3.95l.02-.15ZM365.14,327.58c-.4,1.13-1.46,2.06-2.55,3.05-1.1.82-1.61,2.09-2.87,2.59-3.28.68-6.02-.11-7.55-3.05-.87-1.6-1.5-3.32-1.7-5.15-.27-2.81,1.16-3.87,1.7-6.49.89-3.04,6.36-1.8,8.43-.86,3.72,1.65,5.92,5.67,4.61,9.74l-.06.18ZM369.5,307.4c-.64.97-.68,2.6-1.72,3.17-.39.22-.79.51-1.13.86-.98,1.31-2.59.53-3.75-.15-1.29-.74-1.76-1.43-2.72-1.47-1.19-.06-2.49.14-3.64-.25-4.62-1.33-5.79-8.8-8.02-13.4-.63-1.47-1.56-2.56-2.2-4.09-1.63-4.8-.91-10.07-.94-13.93.03-.49-.07-1.33.53-1.34,9.05,4.37,22.8-3.35,31.66-2.26,5.1,0,11.29-.13,16.54-.4,1.33-.1,2.19.17,2.66,1.33.93,2.32,3.27,5.21.99,7.29-8.01,8.87-21.07,14.79-28.16,24.46l-.1.17ZM410.05,244.8c-.12,2.05-.29,6.92-.4,8.25-.04.43-.25.71-.66.9-1.13.49-3.86,1.63-5.09,2.1-.86.33-1.52.16-2.16-.63-7.05-8.58-18.6-18.15-26.43-25.95l-.13-.14c-3.22-3.78-6.51-7.01-10.34-10.46-.88-.78-1.67-1.87-1.22-3.08.58-1.52,1.83-2.73,2.22-4.34.62-2.19.2-4.09.77-6.35.28-1.19,1.12-2.15,2.2-2.67,3.1-1.44,5.99-3.64,9.16-4.76,4.28-1.63,9.65-1.93,13.8-4.8,1.41-1.05,1.45-2.93,3.2-3.52,2.62-.96,5.9-1.86,8.39-2.86,1.12-.37,2.02.52,2.76,1.27,5.23,5.04,6.27,1.52,5.01,8.86-2.9,12.32-2.33,25.33-2.62,37.91M412.52,308.26c.4.2,1.2.21,1.78.67,1.85,1.62,3.87,5.94,1.12,6.61-1.3.32-7.41-.11-8.76-.88-.82-.47-.41-1.41-1.22-1.93-4.4-3.13,2.07-5.27,6.95-4.67,1.23.02-.81-1.24-.31-.21.09.13.21.26.34.35l.11.06ZM420.94,266.42c4.78,8.06-6.88,16.82-13.77,11.23-3.53-3.24-2.23-12.18,1.77-15.65,3.98-2.59,8.98,1.56,11.88,4.26l.12.16ZM424.34,180.3c-2.06,2.97-7.61,4.95-11.16,3.96-1.79-.81-2.49-4.3-4.36-5.5-.55-.37-1.19-.61-1.37-1.31-.22-1.08-.12-2.42-.17-3.55-.21-2.46,1.98-3.95,3.48-5.6,6.93-7.01,18.76,3.74,13.67,11.85l-.1.15Z"/>
        <path class="cls-5" d="M317.24,52.33c.22.08,2.66,3.26,2.8,3.71,3.51,11.43-16.49,10.39-11.8-1.71,2.34-.42,5.35-3.3,9-2Z"/>
        <path class="cls-5" d="M375.79,356.04c.22.08,2.66,3.26,2.8,3.71,3.51,11.43-16.49,10.39-11.8-1.71,2.34-.42,5.35-3.3,9-2Z"/>
        <path class="cls-5" d="M377.55,159.16c-1.7,1.43-3.61,2.52-5.92,1.92l-1.92-4.97c1.18.02,4.66-4.12,6.92-2.52,1.64,1.54.62,3.9.93,5.57Z"/>
        <g>
          <path class="cls-4" d="M116.29,212.86c.08-.6.18-1.22.54-1.71.4-.55,1.06-.84,1.7-1.09,3.76-1.52,7.76-2.82,11.8-2.43,5.48.52,10.16,4.01,15.24,6.12,3.59,1.49,7.42,2.3,11.11,3.54,3.55,1.2,6.95,2.79,10.34,4.39,8.61,4.05,17.22,8.09,25.83,12.14,4.45,2.09,9.15,4.4,11.72,8.59,1.35,2.2,2.36,5.1,4.87,5.7-.74,1.01-1.48,2.03-2.32,2.95-2.3,2.52-5.38,4.33-8.71,5.12-5.68,1.34-11.68-.32-16.89-2.93-5.21-2.61-9.9-6.16-15.01-8.98-8.22-4.54-17.36-7.1-26.18-10.33-5.57-2.03-11.09-4.37-16.09-7.6-2.37-1.53-5.4-3.38-7.12-5.66s-1.21-4.94-.83-7.82Z"/>
          <path class="cls-4" d="M178.73,194.8c-.5-.34-6.94-4.82-7.24-5.35-.33-.59-.34-1.3-.42-1.97-.48-3.72-3.48-6.54-5.21-9.86-3.26-6.26-1.82-13.86.07-20.67.62-2.22.38-4.97,2.66-4.6.5-.14,1-.28,1.51-.41-.08-13.31,2.4-26.64,7.28-39.02,2.22-5.64,4.93-11.08,7.14-16.72,2.26-5.74,4-11.68,6.42-17.35,5.06-11.85,13.08-22.43,23.14-30.49,4.08-3.27,8.6-6.26,11.3-10.74,2.07-3.44,2.88-7.5,4.73-11.06,2.98-5.75,8.93-10.48,8.93-16.96,12.15,5.23,8.26,2.28,19.43,9.38"/>
          <path class="cls-8" d="M258.46,18.96c.22.14,18.53,11.66,18.49,11.59.71,1.05.95,2.52.24,3.57-4.22.65-8.42,1.3-12.79,1.98-.19,5.68-.5,11.73-3.78,16.36-.46.65-.98,1.27-1.33,1.99-1.1,2.28-.26,5.01.96,7.23s2.81,4.3,3.31,6.78c.78,3.86-1.26,7.67-3.23,11.07-1.83,3.16-3.65,6.33-5.8,9.27-.78,1.07-1.64,2.14-2.79,2.8-1.88,1.06-4.19.84-6.33.6-3.47-.4-7.05,1.28-9.54,3.74s-4.17,5.59-5.82,8.68c-2.77,5.21-5.63,10.81-5.03,16.68.81,7.91,7.71,14.25,8.27,22.18.38,5.38-2.24,10.47-4.78,15.22-1.35,2.52-2.73,5.08-4.76,7.1-1.85,1.83-4.16,3.13-6.19,4.75-2.72,2.17-4.95,4.95-6.49,8.08-1,2.04-1.72,4.24-3.12,6.04-3.86,4.96-11.18,5.09-17.45,4.77-.9,2.81-2.57,5.35-4.27,7.75-.37.52-.81,1.06-1.43,1.17-.66.12-1.29-.28-1.85-.67-3.38-2.34-.82-.57-4.2-2.91"/>
          <path class="cls-4" d="M255.67,142.57c2.94.56,6,1.22,8.87.38,1.5-.44,2.86-1.27,4.11-2.2,6.35-4.67,10.68-12.13,11.16-20s-3.07-15.97-9.42-20.64c-4.97-3.65-11.23-5.1-17.37-5.63-2.52-.22-5.06-.29-7.59-.22-1.12.03-2.29.1-3.27.65-.82.46-1.44,1.21-2.03,1.94-2.65,3.28-5.32,6.6-7.12,10.4-2.22,4.71-3.01,9.98-3.33,15.18-.08,1.24-.12,2.51.21,3.7.38,1.34,1.21,2.49,2.02,3.61,1.72,2.37,3.44,4.74,5.15,7.1,1.96,2.7,4.63,6.01,8.27,5.78s6.5-.8,10.33-.06Z"/>
          <path class="cls-4" d="M282.32,130.41c-2.97,2.24-1.88,2-3.27,5.45-2.36,5.84-8.71,9.47-13.76,13.25,4.76,5.59,9.46,11.31,12.92,17.79,5.96,11.15,7.96,24.36,5.57,36.78-2.4,12.41-9.17,23.94-18.85,32.07-4.85,4.07-10.37,7.3-14.96,11.66-.51.48-1.01.99-1.27,1.64-.28.69-.25,1.47-.15,2.21.86,6.82,6.28,12.18,8.31,18.74,4.73-2.14,10.13-3.33,14.86-5.47,4.72-2.13,3.78-4.62,7.81-7.87,3.85-3.11,8.3-8.36,11.27-12.31,3.9-5.18,6.96-9.43,8.89-15.62,1.26-4.06,4.27-9.5,4.58-13.74.46-6.4,1.79-10.18,1.35-16.59-.47-6.68-.28-14.23-1.67-20.77-2.63-12.35-4.04-15.74-6.67-28.08-.68-3.18-7.82-12.91-10.88-14-2.7-.96-2.58-2.68-4.06-5.13Z"/>
          <path class="cls-8" d="M284.47,119.29c-3.48,2.59,1.64,2.47,0,6.45-2.77,6.75-1.42,5.74-7.33,10.11,5.58,6.46,15.02,16.42,19.08,23.91,6.99,12.88,9.84,33.46,7.04,47.8-2.81,14.35-17.69,34.4-29.03,43.8-5.68,4.7-13.9,13.6-19.27,18.63-.59.56-1.02-12.59-1.33-11.84-.33.8-.29,1.7-.18,2.56,1.01,7.88,7.36,14.07,9.74,21.66,5.55-2.47,11.87-3.85,17.42-6.32,5.53-2.46,4.44-5.33,9.15-9.1,4.51-3.6,9.72-9.66,13.21-14.23,4.57-5.98,8.16-10.9,10.42-18.05,1.48-4.69,5.01-10.98,5.37-15.87.54-7.4,2.1-11.77,1.58-19.17-.55-7.72-.33-16.44-1.96-24.01-3.08-14.27-4.74-18.19-7.82-32.45-.79-3.68-9.16-14.92-12.75-16.18-3.17-1.11-11.58-4.85-13.32-7.69Z"/>
          <path class="cls-4" d="M203.82,259.43c.48-1.61,1.07-3.24,2.2-4.48,1.01-1.11,2.37-1.81,3.71-2.48,2.11-1.05,4.25-2.04,6.4-2.98,3.28-1.43,6.7-2.75,10.27-2.83,6.35-.13,12.09,3.66,16.86,7.85,1.66,1.46,3.27,3,4.53,4.82,1.42,2.05,2.34,4.39,3.25,6.71,1.17,3.01,2.36,6.1,2.39,9.33.06,5.35-3,10.16-4.74,15.22-.31.91-.59,1.84-1.12,2.64-1.09,1.64-3.07,2.43-4.99,2.87-2.77.64-5.65.77-8.34,1.68-2.88.97-5.68,2.85-8.68,2.36-1.75-.29-3.25-1.36-4.88-2.08-2.23-.98-4.71-1.3-6.93-2.3-4.38-1.96-7.21-6.26-9.46-10.5-.72-1.36-1.42-2.76-1.78-4.27-.85-3.55-.1-7.4-.45-11.02-.33-3.43.77-7.3,1.75-10.56Z"/>
          <path class="cls-4" d="M199.25,297.4c4.2-.79,8.62-.41,12.62,1.09,4.94,1.85,9.36,5.38,14.62,5.85,5.98.53,11.5-3.04,17.4-4.19,2.35-.46,4.9-.5,7,.64,1.48.8,2.6,2.12,3.68,3.41,1.98,2.35,3.98,4.73,5.47,7.41,2.38,4.29,3.39,9.19,4.78,13.9.2.67.41,1.35.84,1.89.46.59,1.14.96,1.69,1.46,1.7,1.52,2.17,3.95,2.54,6.19.5,3.02.82,6.6-1.45,8.65-2,1.81-5.06,1.54-7.73,1.2-15.38-1.97-30.9-2.51-46.4-3.06-6.81-.24-13.66-.48-20.42.42-2.79.37-5.81.9-8.29-.44-3.1-1.68-4.13-5.76-3.61-9.24s2.23-6.67,3.33-10.02c.83-2.53,1.32-5.18,2.48-7.58.71-1.47,1.66-2.81,2.49-4.22,1.62-2.73,2.79-5.69,3.85-8.67.38-1.06.58-2.3,1.38-3.11.94-.96,2.45-1.35,3.73-1.59Z"/>
          <path class="cls-8" d="M334.53,363.73l3.67,6.78-1.68,2.74c-18.82,1.84-49.26.87-68.79.9-52.32.07-104.72-1.76-157.04-1.71-1.04-1.07-1.3-10.72-.53-12.37,1.04,1.66,7.32,3.37,9.02,3.4,60.32.75,120.69-.6,181.02-.01l7.26-2.25,8.3-.06"/>
          <path class="cls-4" d="M219.92,349.49c47.16-.34,49.65-2.35,96.53.93.08,0,2.88.62,4.64,1.72,2.51,1.55,4.83,3.18,6.58,5.55l4.63,6.7-32.1-.94c-60.33-.59-120.7.76-181.02.01-1.69-.02-5.38.5-6.42-1.16,3-6.43,8.59-10.9,15.94-11.86s18.24.17,26.11-.56l65.12-.38Z"/>
          <path class="cls-8" d="M274.44,305.88c.52,6.61,16.24,27.32,16.31,35.87-4.94,1.29-15.33-.4-20.73-.45-2.68-13.36-11.75-30.47-20.69-40.66,2.08-1.65,9.49-7.72,11.11-7.36l14,12.6Z"/>
          <path class="cls-3" d="M240.7,285.44c-.72.86-2.46,1.43-3.72,2.39s-2.68,1.67-4.23,1.91c-2.49.4-4.4.93-7.86.01-16.96-4.48-13.29-31.44,5.22-29.24,10.97,1.31,17.82,16.24,10.6,24.92ZM231.45,271.68c-5.53-5.51-11.82,5.22-4.71,8.28,5.16,2.22,7.75-5.26,4.71-8.28Z"/>
          <g>
            <path class="cls-10" d="M262.28,107.31c-15.14-9.89-27.78,15.59-12.95,23.7,6.07,3.16,14.25.79,17.26-5.37,3.21-6.04,1.97-14.17-4.13-18.21l-.18-.12ZM255.03,123.28c-3.85.03-5.02-7.53-.81-7.98,5.09-.57,6.26,7.5,1.01,7.97h-.19Z"/>
            <path class="cls-10" d="M338.84,353.95c-17.47-25.47-35.62-4.68-45.41-24.98-4.03-8.07-8.36-17.77-13.57-24.91-2.49-3.34-4.32-6.05-6.67-9.54-2.6-4.35-8.32-9.27-2.09-12.58,29.25-13.52,46.27-44.16,52.24-75.11,9.94-33.77-8.57-67.21-32.67-90.66-1.83-2.42-3.1-5.18-4.4-7.91-3.07-6.58-8.05-11.93-13.74-16.58-9.38-6.31-1.76-11.48-.6-19.47-.48-9.43-9.27-5.52-2.45-19.49,2.49-7.06,8.52-6.33,13.32-10.3,3.92-3.8,7.83-11.27,5.71-16.63-1.42-3.17-4.61-4.83-7.54-6.41-7.23-3.19-44.3-24.4-49.62-18.29-3.6,3.17-6.19,8.32-6.7,13.16-.26,3.91,1.31,7.06.85,10.77-.75,4.42-2.59,9.16-5.34,12.68-2.54,3.19-7.61,2.07-10.61,3.95-2.75,1.81-3.7,4.93-5.49,7.99-2.39,4.39-5.06,8.98-7.41,13.41-11.64,22.12-18.53,46.65-30.39,68.82-12.05,20.8-2.36,13.66-6.55,26.16-2.21,5.5-5.4,11.18-.75,15.55,1.06,1.19,2.24,2.6,2.87,4.06,1.07,2.28.99,4.89,1.03,7.36-.31,8.84,8.52,12.09,15.23,15.38,6.12,2.84,11.72,3.25,16.49-.52,2.34-1.95,4.65-4.08,7.65-4.89,2.83-.89,5.96-.75,8.07-2.5,3.26-2.52,4.17-7.52,6.95-10.28,4.98-4.1,9.66-.63,12.78-8.62,1.74-3.83,3.5-7.81,4.86-11.79,1.27-3.26,2.08-7.42,5.33-9.24,2.42-1.29,5.87-.57,8.55.36,23.11,8.03,29.88,34.47,23.53,56.35-4.78,17.92-20.71,33.68-40.22,31.84-32.88-7.85-63.64-29.28-96.1-40.56-8.06-2.98-16.13-7.58-19.82,3.85-1.95,6.53-9.86,18.07-2.51,22.59,17.3,8.97,38.12,17.44,56.19,25.58,5.78,3.31,12.5,7.53,18.35,11.03,7.92,3.91,5.91,7.46,6.99,15.26,1.96,8.33-2.54,15.93-6.62,22.93-4.19,7.39-6.03,15.21-9.92,22.63-2.4,4.17-2.51,9.38-6,12.81-2.96,2.69-7.98,2.78-11.93,2.05-30.67-4.36-63.24,1.29-62.94,38,.19,4.8,3.06,6.86,7.57,6.89,30.95,1.62,63.28.83,94.23.58,36.8.22,74.4,1.3,111.31-.18,8.15-.28,17.4.62,23.47.58,5.29-.03,9.21-.7,11.12-3.3,1.85-1.82,1.52-7.32.2-11.58-1.59-5.55-3.94-11.49-6.73-16.19l-.09-.15ZM237.41,14.98c2.7-4.22,15.46,4.1,21.68,7.37,4.73,2.99,8.77,3.89,13.31,6.53,2.77,1.72,2.41,4.83-1.4,4.22-3.45-.91-6.68-3.72-10.01-5.19-6.12-3.28-23.78-7.36-23.61-12.85l.02-.08ZM232.25,36.44c1.29-2.65,2.24-6.48,4.2-7.09,1.27-.43,2.62.02,3.88.45,2.55.96,5.34,2.2,7.6,3.49,10.79,6.24,17.86,5.39,9.78,20.75-3.99,9.42-8.51,3.3-14.65.42-9.57-4.92-17.32-5.16-10.9-17.83l.09-.19ZM185.06,191.09c-1.32-.18-2.72-1.48-4.5-2.43-1.61-.89-3.44-1.5-4.87-2.25-1.95-.97-2.92-3.35-1.73-5.19,1.49-2.28,5.64-.24,9.61,1.65,2.46,1.27,5.23,1.93,5.79,3.47.66,2.15-2.03,5-4.15,4.79l-.15-.02ZM203.5,181.55c-1.3.46-2.74-.29-4-.91-7.51-3.87-16.51-8.39-24.42-12.02-2.24-1.07-5.09-2.31-5.42-5.02-.24-2.22.73-5.32,2.51-6.5,1.69-1.14,3.84.06,5.52.92,8.27,4.39,16.53,8.89,25.16,12.43,1.8.8,4.35,1.48,4.6,3.68.21,2.34-1.67,6.39-3.82,7.37l-.13.05ZM221.84,115.21c-.46,7.88-.56,14.91,4.2,21.73,1.63,3.03,4.79,6.05,3.86,9.67-1.65,4.73-4.85,10.73-6.92,15.4-.44.9-.92,1.79-1.47,2.51-2.85,4.48-13.65-3.09-17.06-4.95-2.87-1.77-5.82-3.06-8.97-4.23-5.45-2.07-10.83-4.79-16.38-6.83-5.35-1.81-6.28-4.76-4.06-9.86,10.66-27.42,25.49-53.17,36.74-80.34.8-1.94,2.02-4.44,3.86-5.05,1.93-.72,4.4.4,6.28,1.3,10.45,5.04,22.09,10.66,32.3,15.34,1.7.82,3.51,1.97,4.26,3.6,1.56,3.46-1.76,9.03-4.4,11.02-2.18,1.66-4.82,1.75-7.37,2.42-5.12,1.55-12.01,5.41-16.25,9.54-2.86,3.04-4.89,7.51-6.63,11.36-1.02,2.32-1.78,4.69-1.98,7.2v.17ZM260.45,139.56c-31.62,8.07-39.61-40.3-7.05-43.07,16.31-1.61,27.37,18.14,21.42,32.13-2.04,5.4-7.93,9.69-14.14,10.89l-.23.05ZM269.49,238.37c25.85-25.66,22.5-61.99,2.58-86.33-4.16-5.49,1.9-8.17,5.88-11.83,2.5-2.19,4.44-5,6.01-7.87,1.83-3.38,4.3-3.32,7.17-.67,41.23,36.82,25.14,116.95-23.67,141.25-3.75,1.83-5.76.2-6.84-3.27-1.5-5.15-4.57-9.61-7.71-13.99-2.82-4.07-.02-6.34,3.71-7.91,4.67-2,9.06-5.38,12.7-9.22l.16-.17ZM219.74,252.38c12.9-4.14,28.08,4.86,30.46,18.18,1.24,8.69-.09,18.27-7.96,23.46-9.12,6.34-22.55,5.1-30.61-2.65-10.49-10.98-8.08-34.57,7.92-38.94l.19-.06ZM193.69,251.44c-21.12-9.53-43.14-18.18-64-28.51-2.49-1.38-5.44-2.52-7.44-4.48-1.14-1.18-.86-2.29.24-4.07,1.32-2.31,3.59-4.19,6.44-3.82,24.86,8.06,47.97,22.61,72.47,31.49,2.06.77,4.59,2.11,4.86,4.28.29,2.29-1.32,4.61-3.03,6.04-2.82,2.47-6.28.53-9.36-.86l-.17-.07ZM186.12,338.13c-.21-1.62.64-3.73,1.06-5.45,2.58-9.39,8.4-21.21,12.01-30.47.75-1.72,1.7-3.89,3.74-3.82,2.16.21,3.84,1.76,5.62,3.02,7.5,5.97,15.22,8.53,22.75,7.94,7.76-.58,15.37-4.51,22.22-11.12,2.63-2.57,5.09-5.02,8.05-1.21,2.18,2.66,4.42,5.75,6.44,8.57,2.52,3.56,3.34,6.36,5.44,10.11,3.94,7.98,18.28,22.69,6.41,24.1-28.99-1.47-58.28.83-87.2-.16-2.08-.15-5.91.5-6.51-1.42l-.02-.09ZM332.04,371.07c-1.22,1.38-4.55,1.48-6.75,1.49-69.63.85-140.61-.59-210.43-.26-5.65-.09-4.46-4.93-2.81-8.45,1.89-4.34,4.46-7.93,7.97-10.1,4.52-2.77,9.63-3.34,15.16-3.49,8.07.01,15.83.28,23.77.39,51.01,1.66,104.36-3.12,154.99-.16,2.76.29,5.41.96,7.87,2.44,4.38,2.16,13.58,13.57,10.32,18.06l-.08.09Z"/>
          </g>
          <path class="cls-11" d="M253.32,115.51c5.53-1.81,7.87,7.23,1.7,7.76-3.43.3-4.83-6.74-1.7-7.76Z"/>
          <path class="cls-1" d="M280.41,130.41c.91-.68,5.36-4.61,6.49-4.66,1.63-.08,3.05,1.03,4.26,2.11,8.41,7.47,15.17,16.77,19.68,27.07,4.14,9.45,6.37,19.66,7.45,29.92.83,7.9.97,16.01-1.24,23.64-4.66,16.1-6.58,33.59-18.94,44.91-3.69,3.38-7.79,6.27-11.44,9.69-3.89,3.64-7.26,7.87-11.59,10.97s-10.04,4.96-15.02,3.07c-1.19-.45-2.32-1.12-3.12-2.11-1.14-1.41-1.46-3.28-2-5.01"/>
        </g>
      </g>
    </g>
  </g>
</svg>